<mxfile host="app.diagrams.net" modified="2022-08-25T05:32:00.442Z" agent="5.0 (Macintosh; Intel Mac OS X 10_15_7) AppleWebKit/537.36 (KHTML, like Gecko) Chrome/104.0.0.0 Safari/537.36" etag="nK8v_k5MVNRzjxMis0xo" version="20.2.6" type="github">
  <diagram id="zQXUQz20aRf1MQhn76jE" name="第 1 页">
    <mxGraphModel dx="1426" dy="623" grid="1" gridSize="10" guides="1" tooltips="1" connect="1" arrows="1" fold="1" page="1" pageScale="1" pageWidth="827" pageHeight="1169" math="0" shadow="0">
      <root>
        <mxCell id="0" />
        <mxCell id="1" parent="0" />
        <mxCell id="IDlzUY-_1IJnwTOHjghK-1" value="&lt;font style=&quot;font-size: 24px;&quot;&gt;管理员&lt;/font&gt;" style="rounded=0;whiteSpace=wrap;html=1;strokeColor=#97D077;" vertex="1" parent="1">
          <mxGeometry x="150" y="172.5" width="100" height="50" as="geometry" />
        </mxCell>
        <mxCell id="IDlzUY-_1IJnwTOHjghK-2" value="用户" style="rounded=0;whiteSpace=wrap;html=1;fontSize=24;strokeColor=#97D077;" vertex="1" parent="1">
          <mxGeometry x="555" y="410" width="120" height="50" as="geometry" />
        </mxCell>
        <mxCell id="IDlzUY-_1IJnwTOHjghK-3" value="&lt;font style=&quot;font-size: 24px;&quot;&gt;广告产品&lt;/font&gt;" style="whiteSpace=wrap;html=1;strokeColor=#97D077;rounded=0;" vertex="1" parent="1">
          <mxGeometry x="560" y="172.5" width="110" height="45" as="geometry" />
        </mxCell>
        <mxCell id="IDlzUY-_1IJnwTOHjghK-6" value="上传" style="rhombus;whiteSpace=wrap;html=1;fontSize=24;strokeColor=#97D077;" vertex="1" parent="1">
          <mxGeometry x="324" y="160" width="150" height="70" as="geometry" />
        </mxCell>
        <mxCell id="IDlzUY-_1IJnwTOHjghK-11" value="浏览" style="rhombus;whiteSpace=wrap;html=1;fontSize=24;strokeColor=#97D077;" vertex="1" parent="1">
          <mxGeometry x="555" y="280" width="120" height="60" as="geometry" />
        </mxCell>
        <mxCell id="IDlzUY-_1IJnwTOHjghK-16" value="" style="endArrow=none;html=1;rounded=0;fontSize=24;strokeColor=#3399FF;exitX=1;exitY=0.5;exitDx=0;exitDy=0;" edge="1" parent="1" source="IDlzUY-_1IJnwTOHjghK-1" target="IDlzUY-_1IJnwTOHjghK-6">
          <mxGeometry width="50" height="50" relative="1" as="geometry">
            <mxPoint x="390" y="390" as="sourcePoint" />
            <mxPoint x="440" y="340" as="targetPoint" />
          </mxGeometry>
        </mxCell>
        <mxCell id="IDlzUY-_1IJnwTOHjghK-21" value="1" style="edgeLabel;html=1;align=center;verticalAlign=middle;resizable=0;points=[];fontSize=24;" vertex="1" connectable="0" parent="IDlzUY-_1IJnwTOHjghK-16">
          <mxGeometry x="0.3623" y="-1" relative="1" as="geometry">
            <mxPoint x="-17" y="-1" as="offset" />
          </mxGeometry>
        </mxCell>
        <mxCell id="IDlzUY-_1IJnwTOHjghK-18" value="" style="endArrow=none;html=1;rounded=0;fontSize=24;strokeColor=#3399FF;exitX=0;exitY=0.5;exitDx=0;exitDy=0;" edge="1" parent="1" source="IDlzUY-_1IJnwTOHjghK-3">
          <mxGeometry width="50" height="50" relative="1" as="geometry">
            <mxPoint x="280" y="205" as="sourcePoint" />
            <mxPoint x="490" y="195" as="targetPoint" />
          </mxGeometry>
        </mxCell>
        <mxCell id="IDlzUY-_1IJnwTOHjghK-22" value="N" style="edgeLabel;html=1;align=center;verticalAlign=middle;resizable=0;points=[];fontSize=24;" vertex="1" connectable="0" parent="IDlzUY-_1IJnwTOHjghK-18">
          <mxGeometry x="-0.0286" relative="1" as="geometry">
            <mxPoint as="offset" />
          </mxGeometry>
        </mxCell>
        <mxCell id="IDlzUY-_1IJnwTOHjghK-19" value="" style="endArrow=none;html=1;rounded=0;fontSize=24;strokeColor=#3399FF;exitX=0.5;exitY=1;exitDx=0;exitDy=0;" edge="1" parent="1" source="IDlzUY-_1IJnwTOHjghK-3" target="IDlzUY-_1IJnwTOHjghK-11">
          <mxGeometry width="50" height="50" relative="1" as="geometry">
            <mxPoint x="290" y="215" as="sourcePoint" />
            <mxPoint x="359" y="215" as="targetPoint" />
          </mxGeometry>
        </mxCell>
        <mxCell id="IDlzUY-_1IJnwTOHjghK-24" value="M" style="edgeLabel;html=1;align=center;verticalAlign=middle;resizable=0;points=[];fontSize=24;" vertex="1" connectable="0" parent="IDlzUY-_1IJnwTOHjghK-19">
          <mxGeometry x="-0.184" y="3" relative="1" as="geometry">
            <mxPoint x="-3" y="7" as="offset" />
          </mxGeometry>
        </mxCell>
        <mxCell id="IDlzUY-_1IJnwTOHjghK-20" value="" style="endArrow=none;html=1;rounded=0;fontSize=24;strokeColor=#3399FF;exitX=0.5;exitY=0;exitDx=0;exitDy=0;entryX=0.5;entryY=1;entryDx=0;entryDy=0;" edge="1" parent="1" source="IDlzUY-_1IJnwTOHjghK-2" target="IDlzUY-_1IJnwTOHjghK-11">
          <mxGeometry width="50" height="50" relative="1" as="geometry">
            <mxPoint x="300" y="225" as="sourcePoint" />
            <mxPoint x="369" y="225" as="targetPoint" />
          </mxGeometry>
        </mxCell>
        <mxCell id="IDlzUY-_1IJnwTOHjghK-23" value="N" style="edgeLabel;html=1;align=center;verticalAlign=middle;resizable=0;points=[];fontSize=24;" vertex="1" connectable="0" parent="IDlzUY-_1IJnwTOHjghK-20">
          <mxGeometry x="0.275" y="-2" relative="1" as="geometry">
            <mxPoint x="-2" y="11" as="offset" />
          </mxGeometry>
        </mxCell>
        <mxCell id="IDlzUY-_1IJnwTOHjghK-26" value="订单" style="rounded=0;whiteSpace=wrap;html=1;fontSize=24;strokeColor=#97D077;" vertex="1" parent="1">
          <mxGeometry x="140" y="450" width="120" height="40" as="geometry" />
        </mxCell>
        <mxCell id="IDlzUY-_1IJnwTOHjghK-27" value="结算" style="rounded=0;whiteSpace=wrap;html=1;fontSize=24;strokeColor=#97D077;" vertex="1" parent="1">
          <mxGeometry x="140" y="540" width="120" height="45" as="geometry" />
        </mxCell>
        <mxCell id="IDlzUY-_1IJnwTOHjghK-28" value="查看" style="rhombus;whiteSpace=wrap;html=1;fontSize=24;strokeColor=#97D077;" vertex="1" parent="1">
          <mxGeometry x="339" y="500" width="120" height="60" as="geometry" />
        </mxCell>
        <mxCell id="IDlzUY-_1IJnwTOHjghK-29" value="" style="endArrow=none;html=1;rounded=0;fontSize=24;strokeColor=#3399FF;entryX=0;entryY=0.5;entryDx=0;entryDy=0;" edge="1" parent="1" source="IDlzUY-_1IJnwTOHjghK-28" target="IDlzUY-_1IJnwTOHjghK-2">
          <mxGeometry width="50" height="50" relative="1" as="geometry">
            <mxPoint x="280" y="205" as="sourcePoint" />
            <mxPoint x="349" y="205" as="targetPoint" />
          </mxGeometry>
        </mxCell>
        <mxCell id="IDlzUY-_1IJnwTOHjghK-30" value="1" style="edgeLabel;html=1;align=center;verticalAlign=middle;resizable=0;points=[];fontSize=24;" vertex="1" connectable="0" parent="IDlzUY-_1IJnwTOHjghK-29">
          <mxGeometry x="0.3623" y="-1" relative="1" as="geometry">
            <mxPoint x="-17" y="-1" as="offset" />
          </mxGeometry>
        </mxCell>
        <mxCell id="IDlzUY-_1IJnwTOHjghK-31" value="" style="endArrow=none;html=1;rounded=0;fontSize=24;strokeColor=#3399FF;exitX=1;exitY=0.75;exitDx=0;exitDy=0;entryX=0;entryY=0.5;entryDx=0;entryDy=0;" edge="1" parent="1" source="IDlzUY-_1IJnwTOHjghK-26" target="IDlzUY-_1IJnwTOHjghK-28">
          <mxGeometry width="50" height="50" relative="1" as="geometry">
            <mxPoint x="260" y="310" as="sourcePoint" />
            <mxPoint x="329" y="310" as="targetPoint" />
          </mxGeometry>
        </mxCell>
        <mxCell id="IDlzUY-_1IJnwTOHjghK-32" value="N" style="edgeLabel;html=1;align=center;verticalAlign=middle;resizable=0;points=[];fontSize=24;" vertex="1" connectable="0" parent="IDlzUY-_1IJnwTOHjghK-31">
          <mxGeometry x="0.3623" y="-1" relative="1" as="geometry">
            <mxPoint x="-17" y="-11" as="offset" />
          </mxGeometry>
        </mxCell>
        <mxCell id="IDlzUY-_1IJnwTOHjghK-33" value="" style="endArrow=none;html=1;rounded=0;fontSize=24;strokeColor=#3399FF;exitX=1;exitY=0.5;exitDx=0;exitDy=0;entryX=0;entryY=0.5;entryDx=0;entryDy=0;" edge="1" parent="1" source="IDlzUY-_1IJnwTOHjghK-27" target="IDlzUY-_1IJnwTOHjghK-28">
          <mxGeometry width="50" height="50" relative="1" as="geometry">
            <mxPoint x="270" y="320" as="sourcePoint" />
            <mxPoint x="330" y="535" as="targetPoint" />
          </mxGeometry>
        </mxCell>
        <mxCell id="IDlzUY-_1IJnwTOHjghK-34" value="N" style="edgeLabel;html=1;align=center;verticalAlign=middle;resizable=0;points=[];fontSize=24;" vertex="1" connectable="0" parent="IDlzUY-_1IJnwTOHjghK-33">
          <mxGeometry x="0.3623" y="-1" relative="1" as="geometry">
            <mxPoint x="-17" y="8" as="offset" />
          </mxGeometry>
        </mxCell>
        <mxCell id="IDlzUY-_1IJnwTOHjghK-35" value="链接" style="rounded=0;whiteSpace=wrap;html=1;fontSize=24;strokeColor=#97D077;" vertex="1" parent="1">
          <mxGeometry x="960" y="405" width="120" height="60" as="geometry" />
        </mxCell>
        <mxCell id="IDlzUY-_1IJnwTOHjghK-36" value="申请" style="rhombus;whiteSpace=wrap;html=1;fontSize=24;strokeColor=#97D077;" vertex="1" parent="1">
          <mxGeometry x="760" y="405" width="120" height="60" as="geometry" />
        </mxCell>
        <mxCell id="IDlzUY-_1IJnwTOHjghK-39" value="" style="endArrow=none;html=1;rounded=0;fontSize=24;strokeColor=#3399FF;exitX=1;exitY=0.5;exitDx=0;exitDy=0;" edge="1" parent="1" source="IDlzUY-_1IJnwTOHjghK-2" target="IDlzUY-_1IJnwTOHjghK-36">
          <mxGeometry width="50" height="50" relative="1" as="geometry">
            <mxPoint x="510" y="420" as="sourcePoint" />
            <mxPoint x="560" y="370" as="targetPoint" />
          </mxGeometry>
        </mxCell>
        <mxCell id="IDlzUY-_1IJnwTOHjghK-40" value="1" style="edgeLabel;html=1;align=center;verticalAlign=middle;resizable=0;points=[];fontSize=24;" vertex="1" connectable="0" parent="IDlzUY-_1IJnwTOHjghK-39">
          <mxGeometry x="0.1114" y="-1" relative="1" as="geometry">
            <mxPoint as="offset" />
          </mxGeometry>
        </mxCell>
        <mxCell id="IDlzUY-_1IJnwTOHjghK-41" value="" style="endArrow=none;html=1;rounded=0;fontSize=24;strokeColor=#3399FF;exitX=1;exitY=0.5;exitDx=0;exitDy=0;" edge="1" parent="1" source="IDlzUY-_1IJnwTOHjghK-36" target="IDlzUY-_1IJnwTOHjghK-35">
          <mxGeometry width="50" height="50" relative="1" as="geometry">
            <mxPoint x="420" y="450" as="sourcePoint" />
            <mxPoint x="470" y="400" as="targetPoint" />
          </mxGeometry>
        </mxCell>
        <mxCell id="IDlzUY-_1IJnwTOHjghK-42" value="M" style="edgeLabel;html=1;align=center;verticalAlign=middle;resizable=0;points=[];fontSize=24;" vertex="1" connectable="0" parent="IDlzUY-_1IJnwTOHjghK-41">
          <mxGeometry x="0.1993" relative="1" as="geometry">
            <mxPoint as="offset" />
          </mxGeometry>
        </mxCell>
        <mxCell id="IDlzUY-_1IJnwTOHjghK-43" value="结算账户" style="rounded=0;whiteSpace=wrap;html=1;fontSize=24;strokeColor=#97D077;" vertex="1" parent="1">
          <mxGeometry x="555" y="520" width="120" height="50" as="geometry" />
        </mxCell>
        <mxCell id="IDlzUY-_1IJnwTOHjghK-44" value="" style="endArrow=none;html=1;rounded=0;fontSize=24;strokeColor=#3399FF;exitX=0.5;exitY=1;exitDx=0;exitDy=0;" edge="1" parent="1" source="IDlzUY-_1IJnwTOHjghK-2" target="IDlzUY-_1IJnwTOHjghK-43">
          <mxGeometry width="50" height="50" relative="1" as="geometry">
            <mxPoint x="410" y="470" as="sourcePoint" />
            <mxPoint x="460" y="420" as="targetPoint" />
          </mxGeometry>
        </mxCell>
        <mxCell id="IDlzUY-_1IJnwTOHjghK-59" value="1" style="edgeLabel;html=1;align=center;verticalAlign=middle;resizable=0;points=[];fontSize=24;" vertex="1" connectable="0" parent="IDlzUY-_1IJnwTOHjghK-44">
          <mxGeometry x="-0.1" y="1" relative="1" as="geometry">
            <mxPoint as="offset" />
          </mxGeometry>
        </mxCell>
        <mxCell id="IDlzUY-_1IJnwTOHjghK-45" value="消息类型" style="rounded=0;whiteSpace=wrap;html=1;fontSize=24;strokeColor=#97D077;" vertex="1" parent="1">
          <mxGeometry x="140" y="280" width="120" height="50" as="geometry" />
        </mxCell>
        <mxCell id="IDlzUY-_1IJnwTOHjghK-46" value="消息通知" style="rounded=0;whiteSpace=wrap;html=1;fontSize=24;strokeColor=#97D077;" vertex="1" parent="1">
          <mxGeometry x="339" y="340" width="120" height="50" as="geometry" />
        </mxCell>
        <mxCell id="IDlzUY-_1IJnwTOHjghK-47" value="消息详情" style="rounded=0;whiteSpace=wrap;html=1;fontSize=24;strokeColor=#97D077;" vertex="1" parent="1">
          <mxGeometry x="140" y="370" width="120" height="50" as="geometry" />
        </mxCell>
        <mxCell id="IDlzUY-_1IJnwTOHjghK-48" style="edgeStyle=orthogonalEdgeStyle;rounded=0;orthogonalLoop=1;jettySize=auto;html=1;exitX=0.5;exitY=1;exitDx=0;exitDy=0;fontSize=24;strokeColor=#3399FF;" edge="1" parent="1" source="IDlzUY-_1IJnwTOHjghK-47" target="IDlzUY-_1IJnwTOHjghK-47">
          <mxGeometry relative="1" as="geometry" />
        </mxCell>
        <mxCell id="IDlzUY-_1IJnwTOHjghK-49" value="" style="endArrow=none;html=1;rounded=0;fontSize=24;strokeColor=#3399FF;entryX=1;entryY=1;entryDx=0;entryDy=0;exitX=0;exitY=0.5;exitDx=0;exitDy=0;" edge="1" parent="1" source="IDlzUY-_1IJnwTOHjghK-46" target="IDlzUY-_1IJnwTOHjghK-45">
          <mxGeometry width="50" height="50" relative="1" as="geometry">
            <mxPoint x="320" y="490" as="sourcePoint" />
            <mxPoint x="370" y="440" as="targetPoint" />
          </mxGeometry>
        </mxCell>
        <mxCell id="IDlzUY-_1IJnwTOHjghK-53" value="M" style="edgeLabel;html=1;align=center;verticalAlign=middle;resizable=0;points=[];fontSize=24;" vertex="1" connectable="0" parent="IDlzUY-_1IJnwTOHjghK-49">
          <mxGeometry x="0.1149" relative="1" as="geometry">
            <mxPoint as="offset" />
          </mxGeometry>
        </mxCell>
        <mxCell id="IDlzUY-_1IJnwTOHjghK-50" value="" style="endArrow=none;html=1;rounded=0;fontSize=24;strokeColor=#3399FF;exitX=1;exitY=0.5;exitDx=0;exitDy=0;entryX=0;entryY=0.5;entryDx=0;entryDy=0;" edge="1" parent="1" source="IDlzUY-_1IJnwTOHjghK-47" target="IDlzUY-_1IJnwTOHjghK-46">
          <mxGeometry width="50" height="50" relative="1" as="geometry">
            <mxPoint x="410" y="470" as="sourcePoint" />
            <mxPoint x="460" y="420" as="targetPoint" />
          </mxGeometry>
        </mxCell>
        <mxCell id="IDlzUY-_1IJnwTOHjghK-52" value="N" style="edgeLabel;html=1;align=center;verticalAlign=middle;resizable=0;points=[];fontSize=24;" vertex="1" connectable="0" parent="IDlzUY-_1IJnwTOHjghK-50">
          <mxGeometry x="-0.1446" relative="1" as="geometry">
            <mxPoint as="offset" />
          </mxGeometry>
        </mxCell>
        <mxCell id="IDlzUY-_1IJnwTOHjghK-54" value="&lt;span style=&quot;font-size: 24px;&quot;&gt;产品分类&lt;/span&gt;" style="whiteSpace=wrap;html=1;strokeColor=#97D077;rounded=0;" vertex="1" parent="1">
          <mxGeometry x="765" y="172.5" width="110" height="45" as="geometry" />
        </mxCell>
        <mxCell id="IDlzUY-_1IJnwTOHjghK-55" value="" style="endArrow=none;html=1;rounded=0;fontSize=24;strokeColor=#3399FF;exitX=1;exitY=0.5;exitDx=0;exitDy=0;" edge="1" parent="1" source="IDlzUY-_1IJnwTOHjghK-3" target="IDlzUY-_1IJnwTOHjghK-54">
          <mxGeometry width="50" height="50" relative="1" as="geometry">
            <mxPoint x="460" y="180" as="sourcePoint" />
            <mxPoint x="510" y="130" as="targetPoint" />
          </mxGeometry>
        </mxCell>
        <mxCell id="IDlzUY-_1IJnwTOHjghK-56" value="M" style="edgeLabel;html=1;align=center;verticalAlign=middle;resizable=0;points=[];fontSize=24;" vertex="1" connectable="0" parent="IDlzUY-_1IJnwTOHjghK-55">
          <mxGeometry x="0.1158" y="1" relative="1" as="geometry">
            <mxPoint as="offset" />
          </mxGeometry>
        </mxCell>
        <mxCell id="IDlzUY-_1IJnwTOHjghK-57" value="" style="endArrow=none;html=1;rounded=0;fontSize=24;strokeColor=#3399FF;exitX=1;exitY=0.5;exitDx=0;exitDy=0;entryX=0;entryY=0.5;entryDx=0;entryDy=0;" edge="1" parent="1" source="IDlzUY-_1IJnwTOHjghK-46" target="IDlzUY-_1IJnwTOHjghK-2">
          <mxGeometry width="50" height="50" relative="1" as="geometry">
            <mxPoint x="460" y="310" as="sourcePoint" />
            <mxPoint x="510" y="260" as="targetPoint" />
          </mxGeometry>
        </mxCell>
        <mxCell id="IDlzUY-_1IJnwTOHjghK-58" value="N" style="edgeLabel;html=1;align=center;verticalAlign=middle;resizable=0;points=[];fontSize=24;" vertex="1" connectable="0" parent="IDlzUY-_1IJnwTOHjghK-57">
          <mxGeometry x="-0.0852" y="3" relative="1" as="geometry">
            <mxPoint as="offset" />
          </mxGeometry>
        </mxCell>
        <mxCell id="IDlzUY-_1IJnwTOHjghK-60" value="" style="endArrow=none;html=1;rounded=0;fontSize=24;strokeColor=#3399FF;entryX=0.5;entryY=1;entryDx=0;entryDy=0;" edge="1" parent="1" source="IDlzUY-_1IJnwTOHjghK-46" target="IDlzUY-_1IJnwTOHjghK-6">
          <mxGeometry width="50" height="50" relative="1" as="geometry">
            <mxPoint x="530" y="410" as="sourcePoint" />
            <mxPoint x="580" y="360" as="targetPoint" />
          </mxGeometry>
        </mxCell>
        <mxCell id="IDlzUY-_1IJnwTOHjghK-61" value="N" style="edgeLabel;html=1;align=center;verticalAlign=middle;resizable=0;points=[];fontSize=24;" vertex="1" connectable="0" parent="IDlzUY-_1IJnwTOHjghK-60">
          <mxGeometry x="0.0545" y="-3" relative="1" as="geometry">
            <mxPoint x="-3" y="-2" as="offset" />
          </mxGeometry>
        </mxCell>
      </root>
    </mxGraphModel>
  </diagram>
</mxfile>
